<?xml version="1.0" encoding="utf-8"?>
<!-- Generator: Adobe Illustrator 22.0.1, SVG Export Plug-In . SVG Version: 6.00 Build 0)  -->
<svg version="1.1" id="Layer_3" xmlns="http://www.w3.org/2000/svg" xmlns:xlink="http://www.w3.org/1999/xlink" x="0px" y="0px"
	 viewBox="0 0 216.2 125.1" style="enable-background:new 0 0 216.2 125.1;" xml:space="preserve">
<g>
	<g>
		<g>
			<path d="M24.9,23.1c0-0.6,0-7.5,0-10.4c0-0.8-0.1-1.4-0.1-1.4s0.7,0.1,1.4,0.1c0.7,0,7.9,0,7.9,0c6,0,9.5,0.9,9.5,6.4
				c0,3.5-2.2,6.7-9.3,6.7c0,0-7.4,0-8.1,0c-0.7,0-1.4,0.1-1.4,0.1S24.9,23.8,24.9,23.1z M24.9,47c0-0.2,0-8.7,0-12.1
				c0-0.8-0.1-1.4-0.1-1.4s0.7,0.1,1.4,0.1c0.7,0,6.7,0,6.7,0c5.3,0,11.8,0,11.8,7.4c0,5.4-4.7,7.4-10.9,7.4c0,0-7.4,0-7.6,0
				c-0.7,0-1.4,0.1-1.4,0.1S24.9,47.7,24.9,47z M5.8,4.8l0,50.3c0,1.6,0.1,2.2-1.1,2.9c-1.1,0.7-2.3,0.8-4.2,1.1c0,0,0,0,0,0
				c-0.2,0-0.2,0.7,0,0.7c0.1,0,40.7,0,40.7,0c17.2,0,24.4-6.8,24.4-17.4c0-7.9-3.7-12.7-10.9-14.5c-0.1,0-0.1-0.2,0-0.2
				c4.6-1.4,8.9-4.8,8.9-13C63.6,3.8,56.1,0,39.8,0L0.6,0c-0.2,0-0.2,0.7,0,0.7c0,0,0,0,0,0c1.9,0.3,3,0.4,4.2,1.1
				C5.9,2.6,5.8,3.2,5.8,4.8z"/>
			<path d="M210.8,4.8c0-1.6-0.1-2.2,1.1-2.9c1.1-0.7,2.3-0.8,4.2-1.1c0,0,0,0,0,0c0.2,0,0.2-0.7,0-0.7l-30,0c-0.2,0-0.2,0.7,0,0.7
				c0,0,0,0,0,0c1.9,0.2,2.8,0.4,3.9,1.1c1.2,0.7,1.1,1.3,1.1,2.9V35c0,6.9-3.9,12.2-11.8,12.2s-11.8-5.3-11.8-12.2l0-30.2
				c0-1.6-0.1-2.2,1.1-2.9c1.1-0.7,2.1-0.9,3.9-1.1c0,0,0,0,0,0c0.2,0,0.2-0.7,0-0.7l-28.3,0c-0.2,0-0.2,0.7,0,0.7c0,0,0,0,0,0
				c1,0.1,1.7,0.1,2.4,0.7c0.9,0.8,1.1,1.8,1.1,3.4l0,29.7c0,14.3,7.8,26.5,31.6,26.5c23.8,0,31.6-12.2,31.6-26.5V4.8z"/>
			<path d="M119.9,59.9c0.2,0,0.2-0.7,0-0.7c0,0,0,0,0,0c-1.9-0.3-3-0.4-4.2-1.1c-1.2-0.7-1.1-1.3-1.1-2.9V36l20.8-30.8
				c1.1-1.7,1.9-2.6,2.8-3.4c0.2-0.1,0.5-0.4,0.8-0.5c0.9-0.4,1.2-0.5,2.2-0.6c0,0,0,0,0,0c0.2,0,0.2-0.7,0-0.7l-28,0
				c-0.2,0-0.2,0.7,0,0.8c0,0,0,0,0,0c1.4,0,3,0,2.8,2c-0.2,1.9-8.2,13.6-11.1,18c-0.4,0.6-0.7,1.3-0.9,2.1
				c-0.1-0.8-0.6-1.6-0.9-2.1c-4-6-10.9-15.6-11.1-18c-0.2-2,1.4-2,2.8-2c0,0,0,0,0,0c0.2,0,0.3-0.7,0-0.7L65.6,0
				c-0.2,0-0.2,0.7,0,0.7c0,0,0,0,0,0c1.3,0.1,1.9,0,3.4,0.8c0.2,0.1,0.6,0.4,0.7,0.5c0.9,0.8,1.5,1.5,2.6,3.2l20.7,30.7l0,19.2
				c0,1.6,0.1,2.2-1.1,2.9c-1.1,0.7-2.3,0.8-4.2,1.1c0,0,0,0,0,0c-0.2,0-0.2,0.7,0,0.7H119.9z"/>
			<g>
				<path d="M61.4,119c-4,4-8.4,5.8-15.9,5.8c-2.6,0-6.7-0.1-8.8-0.1c-2.2,0-4.8,0.1-7.4,0.1c-0.2,0-0.2-0.7,0.1-0.8
					c2.3-0.2,3.3-0.6,4-1c0.8-0.4,1.2-1.4,1.2-12.8v-8.5c0-11.5-0.5-12.5-1.2-12.9c-0.7-0.4-1.7-0.8-4-1c-0.3-0.1-0.2-0.8-0.1-0.8
					c2.6,0,5.2,0.1,7.4,0.1c2.2,0,7.5-0.1,10.1-0.1c11.7,0,20.1,7.8,20.1,18.4C66.9,110.5,64.9,115.4,61.4,119z M45,89
					c-3.5,0-4.9,0.5-5.3,1c-0.3,0.5-0.9,3-0.9,11.5v8.7c0,7.4,0.5,10.4,1.3,11.2c1,1.1,2.4,1.5,5.4,1.5c11.4,0,16.6-5.4,16.6-16.3
					C62.1,97.6,56.1,89,45,89z"/>
				<path d="M99.6,124.8c-0.2,0-0.2-0.7,0-0.8c1.8-0.2,2.9-0.5,2.9-1.4c0-1-0.8-3.6-4.1-12h-12c-2.7,7.5-3.4,10.4-3.4,11.6
					c0,1,0.8,1.6,3.3,1.8c0.2,0.1,0.2,0.8,0,0.8c-3.8,0-6.9,0-11.9,0c-0.2,0-0.3-0.7,0-0.8c1.7-0.2,2.8-0.5,3.7-1.1
					c0.6-0.5,1.6-1.3,5.8-12.7l3.1-8.5c1.8-4.9,3.7-9.9,5.2-14.5c0.1-0.4,1.9-0.4,2,0c1.7,5.1,3.3,9.2,5.3,14.5l3.3,8.5
					c4.5,11.5,5.3,12.3,6.1,12.8c1,0.6,1.9,0.8,3.5,1c0.2,0.1,0.2,0.8,0,0.8C107,124.8,105.2,124.8,99.6,124.8z M92.4,94.2l-5.1,14
					h10.3L92.4,94.2z"/>
				<path d="M147.2,124.8c-0.2,0-0.2-0.7,0.1-0.8c2.3-0.2,3.3-0.6,4-1c0.7-0.4,1.2-1.4,1.2-12.8v-3.6h-22v3.6
					c0,11.5,0.5,12.4,1.2,12.8c0.7,0.4,1.7,0.8,4,1c0.3,0.1,0.3,0.8,0.1,0.8c-5.6,0-9.3,0-14.8,0c-0.2,0-0.2-0.7,0.1-0.8
					c2.3-0.2,3.3-0.6,4-1c0.8-0.4,1.2-1.4,1.2-12.8v-8.5c0-11.5-0.5-12.5-1.2-12.9c-0.7-0.4-1.7-0.8-4-1c-0.3-0.1-0.2-0.8-0.1-0.8
					c5.3,0,9.1,0,14.8,0c0.2,0,0.2,0.7-0.1,0.8c-2.3,0.2-3.3,0.6-4,1c-0.7,0.4-1.2,1.4-1.2,12.9v2.7h22v-2.7
					c0-11.5-0.5-12.5-1.2-12.9c-0.7-0.4-1.7-0.8-4-1c-0.3-0.1-0.3-0.8-0.1-0.8c5.3,0,9.1,0,14.7,0c0.2,0,0.2,0.7-0.1,0.8
					c-2.3,0.2-3.3,0.6-4,1c-0.7,0.4-1.2,1.4-1.2,12.9v8.5c0,11.5,0.5,12.4,1.2,12.8c0.7,0.4,1.7,0.8,4,1c0.3,0.1,0.3,0.8,0.1,0.8
					C156.4,124.8,152.6,124.8,147.2,124.8z"/>
				<path d="M193,125.1c-11,0-19-8.2-19-18.7c0-10,7.9-19.7,19.8-19.7c11.1,0,19,8.2,19,18.7C212.8,115.4,204.9,125.1,193,125.1z
					 M192.7,88.9c-10.4,0-13.8,8.3-13.8,15.8c0,9.5,6,18.3,15.3,18.3c10.4,0,13.8-8.3,13.8-15.8C208,97.7,202,88.9,192.7,88.9z"/>
			</g>
			<path d="M0.5,73C0.2,73,0,73.2,0,73.5C0,73.7,0.2,74,0.5,74h209.1c0.3,0,0.5-0.2,0.5-0.5c0-0.3-0.2-0.5-0.5-0.5H0.5z"/>
			<g>
				<path d="M0.4,124.7c-0.2,0-0.2-0.7,0.1-0.8c2.3-0.2,3.8-0.6,4.5-1c0.7-0.4,1.2-1.4,1.2-12.8v-8.5c0-11.5-0.5-12.5-1.2-12.8
					c-0.7-0.4-2.2-0.8-4.5-1c-0.2-0.1-0.2-0.8-0.1-0.8c5.4,0,10.2,0,15.7,0c0.2,0,0.2,0.7-0.1,0.8c-2.3,0.2-3.7,0.6-4.4,1
					c-0.8,0.4-1.3,1.4-1.3,12.8v8.5c0,11.5,0.5,12.4,1.3,12.8c0.7,0.4,2.2,0.8,4.4,1c0.3,0.1,0.2,0.8,0.1,0.8
					C10.7,124.7,6,124.7,0.4,124.7z"/>
			</g>
		</g>
	</g>
</g>
</svg>
